#!OML:ASF E:/inclinewalkrobotboard/Project1/Captureday1/Session1/subject1.ASF
:FULLY-SPECIFIED
:DEGREES
126
root 0 0 0 -2.7553522052165444 -0.2007387429233205 0.8647179916497016
lowerback 10.383439367756425 -1.0302076040429289 -2.640680486960958
upperback 0.5763530721953671 -1.5675050277788105 1.665666111050092
thorax -5.124607336422351 -0.7012040782190339 3.4422266212249997
lowerneck -16.87938309712453 -2.6361319238726386 -2.2260216667188875
upperneck 19.55229258679347 -3.2003654532916888 0.4817330037905583
head 8.945617756671265 -1.608032569077522 0.1180157281773524
rclavicle -4.0313724261941203E-16 -3.4376347145822344E-16
rhumerus -29.60985690379935 -18.505852057615854 -78.15044725324225
rradius 26.203361332044686
rwrist 4.291336302792739
rhand -17.595752051294106 22.858792165386085
rfingers 7.125020000000029
rthumb 8.648118404436989 -6.965572465926314
lclavicle -7.021047102073381E-16 -1.9069973863112514E-16
lhumerus -29.17729040790562 -2.7558708340221365 82.21140888227286
lradius 34.70848301041171
lwrist 5.905021952727196
lhand -24.90843385291055 24.311410736658075
lfingers 7.123362526870136
lthumb 1.5727576068948927 53.71013400814907
rfemur -12.801839361516404 7.147493434019669 25.05357985131348
rtibia 30.042296835268964
rfoot -12.078573377195001 -8.214420505873793
rtoes -0.7163223256068942
lfemur 4.385169069664686 -3.1604928865828374 -26.267071193782087
ltibia 20.461471174813767
lfoot -15.648466887312283 -9.90396815002903E-4
ltoes -4.618379570601994
127
root 0 0 0 -2.7624089327001817 -0.19241731518106064 0.9809684966344691
lowerback 10.374135747361336 -1.0750936641331688 -2.767746449662435
upperback 0.5860247389417763 -1.6422380266361438 1.656718707581215
thorax -5.1089174351909525 -0.7359152928622441 3.5158931654783268
lowerneck -16.831493329231844 -2.6292465157455776 -2.255879224592757
upperneck 19.534228280355094 -3.1920159855251704 0.5091021711473598
head 8.929420037979181 -1.6040151495747559 0.13398024012270948
rclavicle -4.1471219402365367E-16 -3.401300151546156E-16
rhumerus -29.45501483127023 -18.360861985386883 -78.11782281775216
rradius 26.341370921793537
rwrist 4.322459900535155
rhand -17.620301906917554 22.748252524688937
rfingers 7.125020000000028
rthumb 8.625356735468184 -7.073945838123503
lclavicle -7.221604564753105E-16 -1.8849852713877376E-16
lhumerus -28.930472388812202 -3.0311613883812747 82.19361333163714
lradius 35.23648544445868
lwrist 5.955454453159548
lhand -24.748304538228922 24.406497521943244
lfingers 7.123232975742708
lthumb 1.7251831524043677 53.7538907218921
rfemur -8.741985213670583 9.13212077227793 26.87961966060562
rtibia 19.870543386895463
rfoot -16.942218589200582 -8.876263331394114
rtoes -3.4758037402917363
lfemur 4.476223476570668 -3.0800035539126873 -26.21081741883975
ltibia 21.125563824003855
lfoot -15.357660044734448 -0.29830513524662905
ltoes -4.830777246010642
128
root 0 0 0 -2.7727991064231268 -0.20734111099217678 1.1060032043644306
lowerback 10.364508995506283 -1.1193435825670597 -2.9028798199965573
upperback 0.5998009831790578 -1.7170932905011305 1.643171817722409
thorax -5.0886849823257005 -0.7706107617458768 3.588524755845401
lowerneck -16.762903432236897 -2.6209677339331043 -2.2930034436159907
upperneck 19.50289992488036 -3.1814650864582497 0.5462105710010148
head 8.906257192030868 -1.599790349098765 0.1547901455500842
rclavicle -4.263396321731491E-16 -3.3423451919716145E-16
rhumerus -29.300907464340312 -18.20992245580088 -78.08327533563336
rradius 26.486551715672928
rwrist 4.355417277793271
rhand -17.645747074269966 22.633437716960188
rfingers 7.125020000000026
rthumb 8.602090329463762 -7.186259141434288
lclavicle -7.389044510917965E-16 -1.9097045417388725E-16
lhumerus -28.77900676972485 -3.208760292080907 82.18421136647694
lradius 35.57121785468953
lwrist 5.984572586127302
lhand -24.64245959407969 24.46387876601994
lfingers 7.123124870670583
lthumb 1.8268598048501978 53.78065564422848
rfemur -7.541618370436513 9.57425802315507 27.454880895539837
rtibia 17.59223546681174
rfoot -18.018041979632045 -8.927563043902612
rtoes -3.9911317231990844
lfemur 4.619242178318023 -2.9371920768579485 -26.145562871809716
ltibia 22.244081665003314
lfoot -14.817298427517331 -0.8448622806203732
ltoes -5.119632115206369
129
root 0 0 0 -2.7807517058648306 -0.159612755627478 1.20156554102571
lowerback 10.358895384663136 -1.1594646380464986 -3.0094358978954854
upperback 0.6020804315256498 -1.78240193482995 1.640460919387357
thorax -5.08338233034593 -0.8007178967022983 3.6543677687534104
lowerneck -16.752173678915085 -2.6137639771677996 -2.305772728055884
upperneck 19.506830598378034 -3.170197210361959 0.5501547418319879
head 8.90332482256187 -1.5950747068801223 0.1598596398084604
rclavicle -4.411286902965886E-16 -3.223541950380025E-16
rhumerus -29.063657821201595 -17.988215462604977 -78.02889844746335
rradius 26.710968670380396
rwrist 4.406047149060214
rhand -17.68529802743619 22.458447427307593
rfingers 7.125020000000023
rthumb 8.565306524060555 -7.357860049114343
lclavicle -7.544794512659658E-16 -1.948178608952585E-16
lhumerus -28.78004721593475 -3.2254841965097114 82.18662195322712
lradius 35.58861157729104
lwrist 5.979881313677114
lhand -24.62857015976294 24.46051731464877
lfingers 7.123063154263571
lthumb 1.8405398277953875 53.77846886398193
rfemur -7.751339939107057 8.704045277773167 27.655362098714
rtibia 21.9697766712837
rfoot -15.99836479406871 -8.19709881185473
rtoes -2.0667237574571313
lfemur 3.4924912108099893 -2.472434288500802 -25.31799897563812
ltibia 26.093299203895796
lfoot -12.627951777344045 -2.387295845961594
ltoes -5.583377301473009
130
root 0 0 0 -2.7725849228642088 -0.07964595377761441 1.1202826210979506
lowerback 10.363980268946573 -1.140857818297846 -2.9262365343886003
upperback 0.5828551020347437 -1.7470079732520238 1.6593438542686068
thorax -5.107077772969145 -0.7842483831229343 3.6221833476643686
lowerneck -16.845505593740185 -2.6176779847728104 -2.2643214169948642
upperneck 19.56321048924952 -3.1734543838576994 0.49748644737821124
head 8.935856285814188 -1.5954965445121987 0.1337564869206891
rclavicle -4.480180107645357E-16 -3.148407175623342E-16
rhumerus -28.9433107359383 -17.881620240071236 -78.00445114123445
rradius 26.817890250455658
rwrist 4.429898231137638
rhand -17.70509677317935 22.373910752285777
rfingers 7.125020000000022
rthumb 8.547253374750891 -7.441432145108795
lclavicle -7.543713256715646E-16 -1.9296567602706588E-16
lhumerus -28.819738186014824 -3.177678764162419 82.18977334334666
lradius 35.503244257068374
lwrist 5.974888719458622
lhand -24.65734952767157 24.447247711666797
lfingers 7.123082072500085
lthumb 1.814164364212525 53.771263196078756
rfemur -7.821005616882468 7.90355465461968 27.913663678228183
rtibia 25.954536585778776
rfoot -14.201392284801607 -7.503160689734901
rtoes -0.26877383455077997
lfemur 1.5075358338054752 -2.0274940369694257 -24.126363143789355
ltibia 29.937270568479097
lfoot -10.390253483956464 -3.638594470316029
ltoes -5.8547466870896
131
root 0 0 0 -2.7497295525570493 0.024681573613694496 0.8768029009051832
lowerback 10.37608130420008 -1.0680575153204268 -2.668346275323943
upperback 0.5444986692283451 -1.61849917535132 1.6971180829277785
thorax -5.155237131638641 -0.7246164867754008 3.498229661079766
lowerneck -17.02901955465837 -2.629834841162392 -2.174303507207423
upperneck 19.66831698668812 -3.1864673267445136 0.39276832252037863
head 8.999753944900625 -1.5996301803066122 0.07933662622318183
rclavicle -4.561359144721898E-16 -3.0801867923449506E-16
rhumerus -28.831742314213315 -17.785241505399775 -77.98140418951266
rradius 26.91594954356258
rwrist 4.451425705145907
rhand -17.72385720477761 22.296267606417338
rfingers 7.1250200000000214
rthumb 8.53026982221133 -7.517976932614502
lclavicle -7.551014339124737E-16 -1.900801586930895E-16
lhumerus -28.87228831906404 -3.112783532888777 82.19270317869416
lradius 35.391115050683304
lwrist 5.968450377709237
lhand -24.69652280156557 24.429163410181083
lfingers 7.123115298918769
lthumb 1.7775436991555917 53.75985581114533
rfemur -7.388205441370152 7.230841551314849 28.44508841005124
rtibia 29.22706713829778
rfoot -12.764005460215595 -6.790341079719475
rtoes 1.4398593588495157
lfemur -2.1667892277590415 -1.3911391929760102 -22.064013985363797
ltibia 35.51820097677553
lfoot -7.126010404519588 -5.168167443236891
ltoes -6.077524109886249
132
root 0 0 0 -2.70809406783061 0.09536148127515354 0.4086808513250685
lowerback 10.396481016987437 -0.9141798737384123 -2.165610514356352
upperback 0.490226161080904 -1.353242077019373 1.7518865543116053
thorax -5.224365085213078 -0.6016326514910018 3.2354060032835075
lowerneck -17.284134909077103 -2.6537415872460044 -2.036828676252891
upperneck 19.81146554440457 -3.21504100514327 0.2435807054638106
head 9.089352282520766 -1.6098916520615676 -0.001622172227786045
rclavicle -4.637140251690934E-16 -3.049670143398849E-16
rhumerus -28.753234785095508 -17.717974265622125 -77.96652476197092
rradius 26.98297095284085
rwrist 4.465913492251128
rhand -17.736930233023543 22.242449429923028
rfingers 7.125020000000021
rthumb 8.518387435218592 -7.571020603519411
lclavicle -7.532836229901925E-16 -1.9073023467074928E-16
lhumerus -28.928858673958803 -3.044268205913241 82.19663255991095
lradius 35.27237984187272
lwrist 5.961505794733918
lhand -24.73866625175473 24.40950203457797
lfingers 7.123150362961915
lthumb 1.7384436487248784 53.74665289107649
rfemur -6.456049223027183 6.849192109249415 29.185717668945617
rtibia 30.996278778043912
rfoot -12.045179476688888 -6.204181029599439
rtoes 2.693057677982802
lfemur -8.16721588397633 -0.4752462294966009 -18.788174594741744
ltibia 43.56433793151481
lfoot -2.4984094936246812 -7.038952871229268
ltoes -6.274772339201597
133
root 0 0 0 -2.583069095494483 -0.12867859234651036 -1.0349496211584128
lowerback 10.447577585778157 -0.3951248105086159 -0.5976485623397325
upperback 0.39179851231352947 -0.47789062831822204 1.8578745552304947
thorax -5.35295128874637 -0.19633792660861576 2.3449226780609274
lowerneck -17.724356608511467 -2.7340128518940157 -1.742680550516586
upperneck 20.053144733611205 -3.3259163592806305 -0.0268674556227122
head 9.246408425398895 -1.650935822201635 -0.16575190125289385
rclavicle -4.617837150464151E-16 -3.147914172518208E-16
rhumerus -28.811087895866102 -17.769818355067457 -77.98416636972598
rradius 26.928782254796495
rwrist 4.452670994756346
rhand -17.725693925497698 22.285555482816356
rfingers 7.1250200000000214
rthumb 8.527469279016948 -7.528043543447627
lclavicle -7.302189103809033E-16 -2.0426276266998718E-16
lhumerus -29.136709714389504 -2.8211891281930193 82.21392542573308
lradius 34.84136550138442
lwrist 5.920486136263177
lhand -24.87118839644298 24.329620653283932
lfingers 7.123226733246059
lthumb 1.613681620373173 53.70627316157069
rfemur -4.1734152856336415 7.07526731187701 30.606684736152186
rtibia 29.504348488398783
rfoot -12.88373838872034 -5.80889391533145
rtoes 3.1574519099100886
lfemur -18.247879560545396 0.7586107541379001 -13.461325252420107
ltibia 54.78052355015882
lfoot 4.02111785246348 -9.011881799090373
ltoes -6.211970792487557
